PathFileType	4	(X/Y/Z)	RBDS013\RBDS013runT25.trc
DataRate	CameraRate	NumFrames	NumMarkers	Units	OrigDataRate	OrigDataStartFrame	OrigNumFrames
150.000000	150.000000	5	33	mm	150.000000	2250	4500
Frame#	Time	L.ASIS			L.Heel.Bottom			L.Heel.Lateral			L.Heel.Top			L.Iliac.Crest			L.MT1			L.MT5			L.PSIS			L.Shank.Bottom.Lateral			L.Shank.Bottom.Medial			L.Shank.Top.Lateral			L.Shank.Top.Medial			L.Thigh.Bottom.Lateral			L.Thigh.Bottom.Medial			L.Thigh.Top.Lateral			L.Thigh.Top.Medial			R.ASIS			R.ASY			R.Heel.Bottom			R.Heel.Lateral			R.Heel.Top			R.Iliac.Crest			R.MT1			R.MT5			R.PSIS			R.Shank.Bottom.Lateral			R.Shank.Bottom.Medial			R.Shank.Top.Lateral			R.Shank.Top.Medial			R.Thigh.Bottom.Lateral			R.Thigh.Bottom.Medial			R.Thigh.Top.Lateral			R.Thigh.Top.Medial			
		X1	Y1	Z1	X2	Y2	Z2	X3	Y3	Z3	X4	Y4	Z4	X5	Y5	Z5	X6	Y6	Z6	X7	Y7	Z7	X8	Y8	Z8	X9	Y9	Z9	X10	Y10	Z10	X11	Y11	Z11	X12	Y12	Z12	X13	Y13	Z13	X14	Y14	Z14	X15	Y15	Z15	X16	Y16	Z16	X17	Y17	Z17	X18	Y18	Z18	X19	Y19	Z19	X20	Y20	Z20	X21	Y21	Z21	X22	Y22	Z22	X23	Y23	Z23	X24	Y24	Z24	X25	Y25	Z25	X26	Y26	Z26	X27	Y27	Z27	X28	Y28	Z28	X29	Y29	Z29	X30	Y30	Z30	X31	Y31	Z31	X32	Y32	Z32	X33	Y33	Z33	

2251	15	2249.310100043888	903.1078310687255	912.7620209551203	2199.221357914688	27.52821240448289	1015.316688990302	2220.526137939124	49.73988979221269	971.5897713248326	2207.085197582202	74.37460064614118	1012.767705654415	2190.723615243189	974.2935352969355	880.7718253625801	2410.132374466195	55.03742325604002	1037.114884153076	2375.25450047266	35.92690731888619	931.5274464849753	2094.608236470522	943.3143279789778	984.6149309463336	2268.906929336403	155.8361079890613	945.4164621709679	2227.770049088738	163.368570672044	981.3591077433728	2265.888668692877	234.1201107928312	927.6669239643085	2226.739210310574	242.5925996419316	963.5459343399802	2309.103912701722	567.510026077979	885.6434121656974	2243.760010187963	545.3713900742094	909.8344830992252	2264.257625946575	665.5628385051236	863.0145790040649	2202.11354331337	645.0438651669601	885.3592045252706	2268.540192873623	900.230634692753	1145.415433062919	1754.658018024654	336.0087899493801	1107.334925059766	1705.324796983587	516.857119116331	1069.877146938424	1720.460082568452	497.374998745085	1114.363296120295	1755.134854789031	506.8227546988308	1076.074408372006	2226.053708260984	966.8400296427229	1176.836214327557	1721.436534038679	307.6885396951914	1059.865622299297	1700.788282079949	346.0109345065945	1160.012427647179	2101.346218579049	943.2771308375321	1085.196904407474	1825.95043526957	461.0639480288863	1140.083306762329	1827.584660226796	495.5301531083916	1102.549191569179	1907.385973193124	475.6713516115572	1156.031920117751	1905.934642589935	510.8353358518056	1115.88733658635	2165.979016139953	574.1694962617404	1191.572302959315	2109.570676992197	575.1331482664712	1144.286908515158	2158.845953275708	683.2879530615412	1197.843738287397	2104.931128085588	685.1800321894391	1154.024846035348	
2252	15.00666666666667	2247.628980134156	897.087610048554	911.9411585903995	2182.841936289223	27.95367826528878	1016.054752479316	2204.628917720929	50.53825846366183	972.7334021355836	2191.814325820052	74.78935977078498	1014.382639358383	2189.305956780865	966.9903308374857	880.0681725646896	2395.009854122532	50.92566141847165	1038.839891335348	2359.227454933663	34.61786056760021	932.3925624386177	2093.145852842903	936.325421193446	985.1669604973852	2259.328774419242	153.6834881497953	947.2221966865399	2217.482881368743	163.2478103608443	981.9434915423546	2259.874023308537	231.9477149169378	928.7657012170388	2220.188014081593	242.3137700159551	963.5733854069357	2309.449314525079	563.0505997323976	884.9962626176572	2244.415707696647	540.3180014182996	909.5256778906728	2263.477143769058	660.5348923414263	862.0917948000344	2201.626192968926	639.4348419183488	884.6747085800971	2267.968073574257	893.1648917851101	1144.412886791224	1760.619695787518	342.4950993373187	1107.159533348833	1716.638279762881	525.1464561974718	1071.637267681118	1731.452559300505	504.7686726066268	1116.010380615586	1766.142833851381	513.500106209616	1077.491312178364	2226.411250897147	958.3208773076199	1176.643539125416	1726.192526349504	315.6844576235271	1059.648737829515	1707.412623238677	353.6638293986366	1160.352915715171	2099.88204174306	935.4314548998315	1085.574362063389	1835.75705664006	464.7229269107893	1140.985867721894	1838.590847671889	499.3877841757438	1103.807174044765	1917.538925894085	476.0311657576642	1156.974244408678	1917.465920205511	511.6333578106157	1117.266833082334	2171.445774377265	567.0538865214583	1191.874790106295	2114.62408881036	566.5507640167995	1145.077035992718	2161.868556304977	676.0642241190294	1197.844078675733	2107.744921656044	676.5391837183831	1154.237681442982	
2253	15.01333333333333	2245.686291395721	891.211211708919	911.0000032615579	2166.397746856877	28.5644597033105	1016.710276277301	2188.567983931734	51.49269285057238	973.7357609338812	2176.226048420054	75.37305521657227	1015.775175617234	2187.705966887626	959.5006763843489	879.3128380691732	2379.459050601389	48.18893061647036	1040.289454549172	2342.988544787213	34.09942220638246	933.141317538499	2091.441392633128	929.656339260981	985.8720415920932	2249.123093873487	152.1136374268472	948.8322841402816	2206.742267123464	163.6891057313158	982.4525142812024	2253.182443678485	230.2385369618304	929.7487731497862	2213.116195430248	242.4564016128534	963.5943690210877	2309.126490505185	558.6846118594913	884.3482656157545	2244.403957462081	535.4989437035147	909.3141248139275	2262.202804253707	655.6838687139241	861.1984334644189	2200.643262977539	634.1364950925229	884.1167405560724	2267.187416195166	886.1867991944902	1143.352527201599	1767.7892481222	347.950776815859	1106.932994646159	1728.461575752045	532.1057095578618	1073.498884439882	1743.03680056449	510.8980919732827	1117.724469960561	1777.668144276066	519.0520575801594	1078.940591475463	2226.554985055203	949.8401339952673	1176.478946738872	1732.264662607653	322.5659456352318	1059.425222018546	1715.263306662718	360.0291502421147	1160.72284920816	2098.319160224009	927.9821256009045	1085.972053725547	1846.19648954733	467.5568889908117	1141.938756782981	1850.163474082892	502.3581202736882	1105.051383622828	1928.241065871663	475.7657204411854	1157.841582124486	1929.419036810312	511.7792062721697	1118.612554584927	2177.180368186568	560.3035733118404	1192.18488668262	2119.840082400748	558.2417207220834	1146.081953189098	2165.015984229825	669.1333149685389	1197.867473759447	2110.626837291447	668.1048697092552	1154.617696910125	
2254	15.02	2243.496605631192	885.5978699856762	909.9223333752637	2149.957006406281	29.26301849028343	1017.247550636646	2172.413524726244	52.48403826358354	974.5517748929605	2160.402474913431	76.03277743781952	1016.890154822701	2185.819377257902	951.9872101362412	878.5237732903008	2363.574363748435	46.64648102005596	1041.398718901664	2326.619511713425	34.16075003836914	933.7288539904819	2089.501910125761	923.4355178230733	986.7159107984525	2238.213871300244	151.0336381173501	950.1561893564767	2195.516708513206	164.5454175726141	982.8602704685001	2245.657797025135	228.9069718160272	930.5528667227552	2205.408894548975	242.8906794336073	963.6028768923135	2308.008375368322	554.410659188419	883.7191538357268	2243.574071698767	530.9537463212193	909.188370582629	2260.386625909384	651.0501737603332	860.3684519714711	2199.092982120364	629.2276345553316	883.6951999443813	2266.169632119891	879.4501134061442	1142.278224056615	1776.085713283444	352.3085382842834	1106.636722819965	1740.621332938201	537.7050285475243	1075.461628150199	1755.058490744317	515.7412139147782	1119.494902396986	1789.560323722892	523.4695743184462	1080.414909515953	2226.345742710279	941.6236515179536	1176.352477708972	1739.575366867889	328.2399431212139	1059.184701841884	1724.246571012888	365.0238569495579	1161.106835971954	2096.658796414448	921.0720329387755	1086.386274338283	1857.17928995773	469.5597060809893	1142.930619210588	1862.191849234546	504.4647013299289	1106.26888747914	1939.44742542463	474.9245952907298	1158.612356312554	1941.710534417649	511.3406884404607	1119.897152691106	2183.212052780884	554.0438415488757	1192.483158726742	2125.293469911448	550.3248505366624	1147.244350115934	2168.318478224008	662.6116297088938	1197.899396232106	2113.623854853434	659.9872769725407	1155.147020644104	
2255	15.02666666666667	2241.08761368975	880.3512487112492	908.71093655294	2133.54472555533	29.96554548887697	1017.648094932207	2156.2000795711	53.41520632344213	975.1609888798346	2144.400521469301	76.68973186823047	1017.707389542522	2183.55485567487	944.6464394096781	877.7250239791514	2347.432957400881	46.04347588399715	1042.14614646656	2310.169019845938	34.57967160001309	934.1315284459226	2087.355249471941	917.7842294875103	987.6624941089129	2226.549828400242	150.3246995150957	951.1391940313681	2183.776235448714	165.6535769685376	983.1533400219879	2237.181798789134	227.8462419460571	931.1348036638408	2196.968188089045	243.4769505116539	963.5914323136642	2305.998707388178	550.2257047396636	883.1125606418528	2241.805178200879	526.7081374910331	909.1124187360051	2257.996671394257	646.6656022544303	859.6188784878225	2196.920603682863	624.7675965633255	883.3954909483385	2264.896229858872	873.1087066180661	1141.240369661556	1785.414024656392	355.5126962349398	1106.253666107915	1752.936023411334	541.9195586202491	1077.523161299865	1767.35166943639	519.2776093251193	1121.312413738227	1801.658270605985	526.7484338046722	1081.913135103367	2225.657277449841	933.9106747943134	1176.271261396999	1748.032345161552	332.630865368341	1058.909585039433	1734.25090113437	368.574703234818	1161.48157593021	2094.900087928917	914.8293078261678	1086.808300167611	1868.602302115961	470.7338207840749	1143.945877995827	1874.549578108041	505.740862965837	1107.447623233784	1951.091637104767	473.5717083539394	1159.273617386468	1954.241907587899	510.3970411954841	1121.095514024936	2189.558158779242	548.3957801866482	1192.752525679725	2131.054925327129	542.9188129939308	1148.496973441834	2171.798355507506	656.6115328807291	1197.927709100516	2116.780428428247	652.2955047187311	1155.800490306357	
